<svg width="32" height="32" viewBox="0 0 32 32" fill="none" xmlns="http://www.w3.org/2000/svg">
<g clip-path="url(#clip0_21_23)">
<path d="M5.05319 12L5.6117 12.9307L3.71277 15.9461H2.63298L5.05319 12Z" fill="#603A12"/>
<path d="M2.63298 15.946H4.90426L4.27128 16.9139H2L2.63298 15.946Z" fill="#603A12"/>
<path d="M4.49467 12.9307L5.05319 12L8.14361 16.914H6.95212L4.49467 12.9307Z" fill="#603A12"/>
<path d="M8.62766 12L9.67021 13.0295V16.9268H8.62766V12Z" fill="#603A12"/>
<path d="M8.62766 13.3972V12L13.2447 16.5959V17.9563L8.62766 13.3972Z" fill="#603A12"/>
<path d="M12.2766 12H13.2447V17.9563L12.2766 17.0004V12Z" fill="#603A12"/>
<path d="M13.766 12H14.734V14.9782H13.766V12Z" fill="#603A12"/>
<path d="M13.766 12H17.6011L17.8245 12.0372L17.9734 12.0745L18.1223 12.1489L18.3457 12.2978L18.5692 12.5212L18.6436 12.6329L18.7181 12.7818L18.7553 12.9679H13.766V12Z" fill="#603A12"/>
<path d="M17.7872 12.9679H18.7553V16.0205H17.7872V12.9679Z" fill="#603A12"/>
<path d="M13.766 16.0205H17.6383L17.7128 15.9833L17.75 15.946L17.7872 15.8716L18.7553 16.0205L18.7181 16.1694L18.6436 16.3555L18.4947 16.5417L18.383 16.6533L18.234 16.765L18.0479 16.8767L17.8617 16.9512L17.6383 16.9884H13.766V16.0205Z" fill="#603A12"/>
<path d="M14.1383 16.9884H14.7341V17.9563L14.2872 17.249L14.1383 16.9884Z" fill="#603A12"/>
<path d="M19.2766 13.9854H20.2447V16.9268H19.2766V13.9854Z" fill="#603A12"/>
<path d="M19.2766 13.9854H24.266L24.1915 14.206L24.0798 14.3899L23.8564 14.6105L23.6702 14.7575L23.4096 14.8678L23.1862 14.9414H19.2766V13.9854Z" fill="#603A12"/>
<path d="M21.3989 14.9414H22.5532L24.4521 17.9563H23.2979L21.3989 14.9414Z" fill="#603A12"/>
<path d="M19.2766 12H20.2447V13.5442L19.7979 12.8089L19.2766 12Z" fill="#603A12"/>
<path d="M20.2447 12H23.1117L23.3723 12.0735L23.633 12.1838L23.8936 12.3677L24.0425 12.5147L24.1915 12.7353L24.266 12.956H20.2447V12Z" fill="#603A12"/>
<path d="M22.9255 12.9559H24.266L24.3404 13.2133V13.728L24.266 13.9854H23L23.1117 13.9358L23.1862 13.8986L23.2234 13.8613L23.2606 13.8241L23.2979 13.7496V13.6913V13.3236V13.2657L23.2606 13.1765L23.2234 13.1168L23.1489 13.0423L23.0372 12.9927L22.9255 12.9559Z" fill="#603A12"/>
<path d="M25.9043 12H24.9362V17.0516H25.9043V12Z" fill="#603A12"/>
<path d="M30 12H24.9362V12.9802H30V12Z" fill="#603A12"/>
<path d="M30 16.0714H24.9362V17.0516H30V16.0714Z" fill="#603A12"/>
<path d="M28.9574 14.0357H24.9362V15.0159H28.9574V14.0357Z" fill="#603A12"/>
<path d="M29.4043 17.0516H30V17.9563L29.7021 17.5039L29.4043 17.0516Z" fill="#603A12"/>
<path d="M30 17.4351H2V17.584H30V17.4351Z" fill="#603A12"/>
<path d="M5.2057 20.2644H5.01387L4.96383 19.616C4.94298 19.3617 4.93116 19.1664 4.92838 19.0302L4.6177 20.1018H4.43213L4.10476 19.0281C4.10476 19.2019 4.09573 19.4027 4.07766 19.6306L4.0297 20.2644H3.84204L3.96089 18.828H4.22779L4.53013 19.8724L4.81787 18.828H5.08685L5.2057 20.2644ZM8.93663 20.2644L8.8282 19.9037H8.28399L8.17556 20.2644H7.97539L8.4362 18.828H8.68641L9.14514 20.2644H8.93663ZM8.33195 19.7432H8.78024L8.55714 18.9927L8.33195 19.7432ZM12.4151 19.6556H12.192V20.2644H11.9939V18.828H12.3713C12.5506 18.828 12.6862 18.862 12.7779 18.9301C12.871 18.9982 12.9176 19.0997 12.9176 19.2345C12.9176 19.3346 12.8919 19.4159 12.8405 19.4784C12.789 19.541 12.7112 19.5882 12.6069 19.6202L12.9948 20.2644H12.7591L12.4151 19.6556ZM12.3922 19.5034C12.4964 19.5034 12.5749 19.4826 12.6278 19.4409C12.6806 19.3978 12.707 19.329 12.707 19.2345C12.707 19.1456 12.6799 19.0816 12.6257 19.0427C12.5728 19.0024 12.4873 18.9823 12.3692 18.9823H12.192V19.5034H12.3922ZM16.6555 20.1831C16.7319 20.1831 16.8015 20.1949 16.8641 20.2185C16.9266 20.2408 16.9871 20.272 17.0455 20.3123L16.9162 20.4791C16.8328 20.4055 16.7535 20.3547 16.6785 20.3269C16.6034 20.2991 16.5019 20.2852 16.3741 20.2852C16.2545 20.2852 16.1495 20.2574 16.0592 20.2018C15.9688 20.1449 15.8979 20.0615 15.8465 19.9517C15.7965 19.8405 15.7715 19.7063 15.7715 19.5493C15.7715 19.395 15.7965 19.2616 15.8465 19.149C15.8979 19.0365 15.9695 18.951 16.0613 18.8926C16.153 18.8329 16.2586 18.803 16.3782 18.803C16.4992 18.803 16.6048 18.8322 16.6952 18.8905C16.7869 18.9475 16.8578 19.0316 16.9078 19.1428C16.9592 19.254 16.985 19.3888 16.985 19.5472C16.985 19.7154 16.9571 19.8495 16.9016 19.9496C16.846 20.0482 16.764 20.1261 16.6555 20.1831ZM15.9821 19.5493C15.9821 19.748 16.0168 19.894 16.0863 19.9871C16.1572 20.0802 16.2545 20.1268 16.3782 20.1268C16.6423 20.1268 16.7744 19.9336 16.7744 19.5472C16.7744 19.1595 16.6423 18.9656 16.3782 18.9656C16.2531 18.9656 16.1558 19.0128 16.0863 19.1073C16.0168 19.2019 15.9821 19.3492 15.9821 19.5493ZM20.9183 19.8036C20.9183 19.8995 20.8981 19.9843 20.8578 20.058C20.8189 20.1303 20.7613 20.1872 20.6848 20.2289C20.6097 20.2692 20.5194 20.2894 20.4137 20.2894C20.2538 20.2894 20.1301 20.2456 20.0426 20.158C19.9564 20.0691 19.9133 19.951 19.9133 19.8036V18.828H20.1114V19.789C20.1114 19.9002 20.1364 19.9836 20.1864 20.0392C20.2365 20.0948 20.3122 20.1226 20.4137 20.1226C20.5166 20.1226 20.593 20.0955 20.6431 20.0413C20.6931 19.9857 20.7181 19.9016 20.7181 19.789V18.828H20.9183V19.8036ZM24.7197 18.828L24.6968 18.9864H24.14V19.4555H24.6238V19.6139H24.14V20.1059H24.7364V20.2644H23.9419V18.828H24.7197ZM28.0191 18.803C28.1151 18.803 28.1971 18.8169 28.2652 18.8447C28.3333 18.8711 28.3993 18.9128 28.4633 18.9698L28.3549 19.0907C28.3006 19.0476 28.2471 19.0163 28.1943 18.9969C28.1428 18.976 28.0873 18.9656 28.0275 18.9656C27.9524 18.9656 27.8905 18.983 27.8419 19.0177C27.7933 19.0525 27.7689 19.1032 27.7689 19.1699C27.7689 19.2116 27.7773 19.247 27.794 19.2762C27.8106 19.304 27.8412 19.3297 27.8857 19.3533C27.9316 19.377 27.9976 19.402 28.0838 19.4284C28.1741 19.4562 28.2492 19.4861 28.309 19.518C28.3688 19.55 28.4167 19.5945 28.4529 19.6515C28.4904 19.7071 28.5092 19.778 28.5092 19.8641C28.5092 19.9475 28.4883 20.0211 28.4466 20.0851C28.4063 20.149 28.3472 20.1991 28.2694 20.2352C28.1929 20.2713 28.1019 20.2894 27.9962 20.2894C27.7975 20.2894 27.6348 20.2275 27.5083 20.1038L27.6167 19.9829C27.6751 20.0302 27.7342 20.0663 27.794 20.0913C27.8538 20.1149 27.9205 20.1268 27.9941 20.1268C28.0831 20.1268 28.1568 20.1053 28.2152 20.0621C28.2735 20.0177 28.3027 19.9537 28.3027 19.8704C28.3027 19.8231 28.2937 19.7842 28.2756 19.7536C28.2575 19.7217 28.2262 19.6931 28.1818 19.6681C28.1387 19.6431 28.0754 19.6181 27.992 19.5931C27.8447 19.5486 27.737 19.4951 27.6689 19.4326C27.6007 19.37 27.5667 19.2852 27.5667 19.1782C27.5667 19.106 27.5854 19.0413 27.623 18.9843C27.6619 18.9274 27.7154 18.8829 27.7835 18.8509C27.853 18.819 27.9316 18.803 28.0191 18.803Z" fill="#BE9E50"/>
</g>
<defs>
<clipPath id="clip0_21_23">
<rect width="28" height="8.71111" fill="white" transform="translate(2 12)"/>
</clipPath>
</defs>
</svg>
