<svg width="30" height="10" viewBox="0 0 30 10" fill="none" xmlns="http://www.w3.org/2000/svg">
<path d="M18.9588 1.96126V4.86683H19.9031V2.90557H20.9564L22.8087 5.88378H24.0073L22.1186 2.90557H22.8087L23.0993 2.76029L23.3172 2.61501L23.6077 2.32446L23.7167 2.17918L23.7893 2.0339L23.8257 1.88862L23.862 1.70702V1.16223L23.753 0.94431L23.7167 0.835351L23.6077 0.617433L23.5351 0.508475L23.3172 0.290557L23.2082 0.217918L23.063 0.145278L22.8814 0.0726392L22.5908 0H18.9588L19.9031 1.56174V0.94431H22.5908L22.7361 1.01695L22.845 1.12591L22.9177 1.27119V1.70702L22.8087 1.81598L22.6998 1.88862L22.5545 1.96126H18.9588Z" fill="#FC8D1A"/>
<path d="M2.28814 4.86683L2.86925 3.92252H1.74334L3.01453 1.88862L4.86683 4.86683H5.99274L3.01453 0.0726392L0 4.86683H2.28814Z" fill="#FC8D1A"/>
<path d="M11.5496 5.84746V0H10.6053V3.55932L7.04601 0V4.86683H8.06295V2.39709L11.5496 5.84746Z" fill="#FC8D1A"/>
<path d="M12.7845 2.83293V0H16.4891L16.6707 0.0363196L16.7797 0.0726392L16.9249 0.145278L17.0339 0.217918L17.1065 0.290557L17.2155 0.363196L17.3608 0.508475L17.5061 0.726392L17.6513 1.01695L17.6877 1.16223V3.92252L17.5787 4.14044L17.5061 4.24939L17.2155 4.53995L16.7797 4.75787L16.7433 4.79419L16.6707 4.83051L16.5617 4.86683H13.7288V5.84746L12.7845 4.35835V3.92252H16.1985L16.4165 3.84988L16.5254 3.77724L16.7433 3.55932L16.7797 3.48668V1.38015L16.7433 1.30751L16.5254 1.08959L16.4165 1.01695L16.2712 0.94431H13.7288V2.83293H12.7845Z" fill="#FC8D1A"/>
<path d="M25.0605 4.86683V0H30V0.94431H26.0775V1.96126H29.0557V2.90557H26.0775V3.92252H30V5.77482L29.3826 4.86683H25.0605Z" fill="#FC8D1A"/>
<path d="M5.148 9H4.872L4.8 8.067C4.77 7.701 4.753 7.42 4.749 7.224L4.302 8.766H4.035L3.564 7.221C3.564 7.471 3.551 7.76 3.525 8.088L3.456 9H3.186L3.357 6.933H3.741L4.176 8.436L4.59 6.933H4.977L5.148 9Z" fill="#FC8E1D"/>
<path d="M8.53596 9L8.37996 8.481H7.59696L7.44096 9H7.15296L7.81596 6.933H8.17596L8.83596 9H8.53596ZM7.66596 8.25H8.31096L7.98996 7.17L7.66596 8.25Z" fill="#FC8E1D"/>
<path d="M11.5607 8.124H11.2397V9H10.9547V6.933H11.4977C11.7557 6.933 11.9507 6.982 12.0827 7.08C12.2167 7.178 12.2837 7.324 12.2837 7.518C12.2837 7.662 12.2467 7.779 12.1727 7.869C12.0987 7.959 11.9867 8.027 11.8367 8.073L12.3947 9H12.0557L11.5607 8.124ZM11.5277 7.905C11.6777 7.905 11.7907 7.875 11.8667 7.815C11.9427 7.753 11.9807 7.654 11.9807 7.518C11.9807 7.39 11.9417 7.298 11.8637 7.242C11.7877 7.184 11.6647 7.155 11.4947 7.155H11.2397V7.905H11.5277Z" fill="#FC8E1D"/>
<path d="M15.6817 8.883C15.7917 8.883 15.8917 8.9 15.9817 8.934C16.0717 8.966 16.1587 9.011 16.2427 9.069L16.0567 9.309C15.9367 9.203 15.8227 9.13 15.7147 9.09C15.6067 9.05 15.4607 9.03 15.2767 9.03C15.1047 9.03 14.9537 8.99 14.8237 8.91C14.6937 8.828 14.5917 8.708 14.5177 8.55C14.4457 8.39 14.4097 8.197 14.4097 7.971C14.4097 7.749 14.4457 7.557 14.5177 7.395C14.5917 7.233 14.6947 7.11 14.8267 7.026C14.9587 6.94 15.1107 6.897 15.2827 6.897C15.4567 6.897 15.6087 6.939 15.7387 7.023C15.8707 7.105 15.9727 7.226 16.0447 7.386C16.1187 7.546 16.1557 7.74 16.1557 7.968C16.1557 8.21 16.1157 8.403 16.0357 8.547C15.9557 8.689 15.8377 8.801 15.6817 8.883ZM14.7127 7.971C14.7127 8.257 14.7627 8.467 14.8627 8.601C14.9647 8.735 15.1047 8.802 15.2827 8.802C15.6627 8.802 15.8527 8.524 15.8527 7.968C15.8527 7.41 15.6627 7.131 15.2827 7.131C15.1027 7.131 14.9627 7.199 14.8627 7.335C14.7627 7.471 14.7127 7.683 14.7127 7.971Z" fill="#FC8E1D"/>
<path d="M19.8349 8.337C19.8349 8.475 19.8059 8.597 19.7479 8.703C19.6919 8.807 19.6089 8.889 19.4989 8.949C19.3909 9.007 19.2609 9.036 19.1089 9.036C18.8789 9.036 18.7009 8.973 18.5749 8.847C18.4509 8.719 18.3889 8.549 18.3889 8.337V6.933H18.6739V8.316C18.6739 8.476 18.7099 8.596 18.7819 8.676C18.8539 8.756 18.9629 8.796 19.1089 8.796C19.2569 8.796 19.3669 8.757 19.4389 8.679C19.5109 8.599 19.5469 8.478 19.5469 8.316V6.933H19.8349V8.337Z" fill="#FC8E1D"/>
<path d="M23.3243 6.933L23.2913 7.161H22.4903V7.836H23.1863V8.064H22.4903V8.772H23.3483V9H22.2053V6.933H23.3243Z" fill="#FC8E1D"/>
<path d="M26.0914 6.897C26.2294 6.897 26.3474 6.917 26.4454 6.957C26.5434 6.995 26.6384 7.055 26.7304 7.137L26.5744 7.311C26.4964 7.249 26.4194 7.204 26.3434 7.176C26.2694 7.146 26.1894 7.131 26.1034 7.131C25.9954 7.131 25.9064 7.156 25.8364 7.206C25.7664 7.256 25.7314 7.329 25.7314 7.425C25.7314 7.485 25.7434 7.536 25.7674 7.578C25.7914 7.618 25.8354 7.655 25.8994 7.689C25.9654 7.723 26.0604 7.759 26.1844 7.797C26.3144 7.837 26.4224 7.88 26.5084 7.926C26.5944 7.972 26.6634 8.036 26.7154 8.118C26.7694 8.198 26.7964 8.3 26.7964 8.424C26.7964 8.544 26.7664 8.65 26.7064 8.742C26.6484 8.834 26.5634 8.906 26.4514 8.958C26.3414 9.01 26.2104 9.036 26.0584 9.036C25.7724 9.036 25.5384 8.947 25.3564 8.769L25.5124 8.595C25.5964 8.663 25.6814 8.715 25.7674 8.751C25.8534 8.785 25.9494 8.802 26.0554 8.802C26.1834 8.802 26.2894 8.771 26.3734 8.709C26.4574 8.645 26.4994 8.553 26.4994 8.433C26.4994 8.365 26.4864 8.309 26.4604 8.265C26.4344 8.219 26.3894 8.178 26.3254 8.142C26.2634 8.106 26.1724 8.07 26.0524 8.034C25.8404 7.97 25.6854 7.893 25.5874 7.803C25.4894 7.713 25.4404 7.591 25.4404 7.437C25.4404 7.333 25.4674 7.24 25.5214 7.158C25.5774 7.076 25.6544 7.012 25.7524 6.966C25.8524 6.92 25.9654 6.897 26.0914 6.897Z" fill="#FC8E1D"/>
</svg>
