<svg width="33" height="30" viewBox="0 0 33 30" fill="none" xmlns="http://www.w3.org/2000/svg">
<path d="M6.57898 24.207C1.94789 19.4662 1.9479 11.7797 6.57898 7.03888L9.68629 3.85792C14.3174 -0.88294 21.8259 -0.882946 26.4569 3.85791L28.6147 6.06679C33.2458 10.8077 33.2457 18.4941 28.6147 23.2349L25.5074 26.4159C20.8763 31.1568 13.3678 31.1568 8.73671 26.4159L6.57898 24.207Z" fill="#068DA8"/>
<path d="M5.38531 23.9332C0.754229 19.1924 0.754234 11.5059 5.38532 6.76505L8.49263 3.58409C13.1237 -1.15677 20.6322 -1.15677 25.2633 3.58408L27.421 5.79296C32.0521 10.5338 32.0521 18.2203 27.421 22.9611L24.3137 26.1421C19.6826 30.8829 12.1741 30.8829 7.54305 26.1421L5.38531 23.9332Z" fill="#012E37"/>
<path d="M20.3199 11.7951V15.0643H21.2861V12.8576H22.3638L24.259 16.2086H25.4853L23.5529 12.8576H24.259L24.5562 12.6941L24.7792 12.5307L25.0765 12.2038L25.188 12.0403L25.2623 11.8768L25.2995 11.7134L25.3366 11.5091V10.8961L25.2251 10.6509L25.188 10.5283L25.0765 10.2831L25.0022 10.1605L24.7792 9.91531L24.6677 9.83358L24.5191 9.75185L24.3333 9.67012L24.036 9.58839H20.3199L21.2861 11.3456V10.6509H24.036L24.1846 10.7326L24.2961 10.8552L24.3704 11.0187V11.5091L24.259 11.6317L24.1475 11.7134L23.9988 11.7951H20.3199Z" fill="#068DA8"/>
<path d="M3.26324 15.0643L3.8578 14.0018H2.70583L4.00645 11.7134L5.90164 15.0643H7.05361L4.00645 9.67012L0.922119 15.0643H3.26324Z" fill="#068DA8"/>
<path d="M12.7392 16.1677V9.58839H11.773V13.5932L8.13127 9.58839V15.0643H9.17177V12.2855L12.7392 16.1677Z" fill="#068DA8"/>
<path d="M14.0026 12.7759V9.58839H17.793L17.9788 9.62926L18.0903 9.67012L18.2389 9.75185L18.3504 9.83358L18.4248 9.91531L18.5362 9.99705L18.6849 10.1605L18.8335 10.4057L18.9822 10.7326L19.0193 10.8961V14.0018L18.9078 14.247L18.8335 14.3696L18.5362 14.6965L18.0903 14.9417L18.0531 14.9826L17.9788 15.0235L17.8673 15.0643H14.9688V16.1677L14.0026 14.4922V14.0018H17.4957L17.7187 13.9201L17.8302 13.8384L18.0531 13.5932L18.0903 13.5115V11.1413L18.0531 11.0595L17.8302 10.8144L17.7187 10.7326L17.5701 10.6509H14.9688V12.7759H14.0026Z" fill="#068DA8"/>
<path d="M26.5629 15.0643V9.58839H31.6168V10.6509H27.6034V11.7951H30.6506V12.8576H27.6034V14.0018H31.6168V16.086L30.985 15.0643H26.5629Z" fill="#068DA8"/>
<path d="M6.18932 19.7148H5.90693L5.83326 18.665C5.80257 18.2532 5.78517 17.937 5.78108 17.7165L5.32373 19.4515H5.05055L4.56864 17.7131C4.56864 17.9944 4.55534 18.3196 4.52874 18.6887L4.45814 19.7148H4.18189L4.35685 17.3891H4.74974L5.19481 19.0802L5.6184 17.3891H6.01436L6.18932 19.7148Z" fill="#068DA8"/>
<path d="M9.65573 19.7148L9.49611 19.1308H8.69498L8.53537 19.7148H8.2407L8.91905 17.3891H9.28739L9.96267 19.7148H9.65573ZM8.76558 18.8709H9.42552L9.09708 17.6558L8.76558 18.8709Z" fill="#068DA8"/>
<path d="M12.7505 18.7292H12.4221V19.7148H12.1305V17.3891H12.686C12.95 17.3891 13.1495 17.4442 13.2846 17.5545C13.4217 17.6648 13.4902 17.829 13.4902 18.0473C13.4902 18.2093 13.4524 18.341 13.3767 18.4422C13.3009 18.5435 13.1864 18.62 13.0329 18.6718L13.6038 19.7148H13.2569L12.7505 18.7292ZM12.7167 18.4827C12.8702 18.4827 12.9858 18.449 13.0636 18.3815C13.1413 18.3117 13.1802 18.2003 13.1802 18.0473C13.1802 17.9033 13.1403 17.7998 13.0605 17.7368C12.9827 17.6715 12.8569 17.6389 12.683 17.6389H12.4221V18.4827H12.7167Z" fill="#068DA8"/>
<path d="M16.9669 19.5832C17.0795 19.5832 17.1818 19.6023 17.2739 19.6405C17.366 19.6765 17.455 19.7272 17.5409 19.7924L17.3506 20.0625C17.2279 19.9432 17.1112 19.8611 17.0007 19.8161C16.8902 19.7711 16.7408 19.7486 16.5526 19.7486C16.3766 19.7486 16.2221 19.7035 16.0891 19.6135C15.9561 19.5213 15.8517 19.3862 15.776 19.2085C15.7023 19.0285 15.6655 18.8113 15.6655 18.557C15.6655 18.3072 15.7023 18.0912 15.776 17.9089C15.8517 17.7266 15.9571 17.5883 16.0922 17.4937C16.2272 17.397 16.3827 17.3486 16.5587 17.3486C16.7367 17.3486 16.8923 17.3958 17.0253 17.4904C17.1603 17.5826 17.2647 17.7188 17.3384 17.8988C17.4141 18.0788 17.4519 18.2971 17.4519 18.5536C17.4519 18.8259 17.411 19.0431 17.3291 19.2051C17.2473 19.3649 17.1266 19.4909 16.9669 19.5832ZM15.9755 18.557C15.9755 18.8788 16.0267 19.1151 16.129 19.2659C16.2333 19.4166 16.3766 19.492 16.5587 19.492C16.9475 19.492 17.1419 19.1792 17.1419 18.5536C17.1419 17.9258 16.9475 17.6119 16.5587 17.6119C16.3745 17.6119 16.2313 17.6884 16.129 17.8414C16.0267 17.9944 15.9755 18.233 15.9755 18.557Z" fill="#068DA8"/>
<path d="M21.2163 18.9688C21.2163 19.1241 21.1867 19.2614 21.1273 19.3806C21.07 19.4976 20.9851 19.5899 20.8726 19.6574C20.7621 19.7227 20.629 19.7553 20.4735 19.7553C20.2382 19.7553 20.0561 19.6844 19.9272 19.5426C19.8003 19.3986 19.7369 19.2073 19.7369 18.9688V17.3891H20.0285V18.9452C20.0285 19.1252 20.0653 19.2602 20.139 19.3502C20.2126 19.4403 20.3241 19.4853 20.4735 19.4853C20.6249 19.4853 20.7375 19.4414 20.8112 19.3536C20.8848 19.2636 20.9217 19.1275 20.9217 18.9452V17.3891H21.2163V18.9688Z" fill="#068DA8"/>
<path d="M24.7865 17.3891L24.7527 17.6456H23.9331V18.4051H24.6453V18.6616H23.9331V19.4583H24.811V19.7148H23.6415V17.3891H24.7865Z" fill="#068DA8"/>
<path d="M27.6177 17.3486C27.7589 17.3486 27.8796 17.3711 27.9799 17.4161C28.0802 17.4589 28.1774 17.5264 28.2715 17.6186L28.1119 17.8144C28.0321 17.7446 27.9533 17.694 27.8755 17.6625C27.7998 17.6288 27.718 17.6119 27.63 17.6119C27.5195 17.6119 27.4284 17.64 27.3568 17.6963C27.2852 17.7525 27.2494 17.8347 27.2494 17.9427C27.2494 18.0102 27.2616 18.0676 27.2862 18.1148C27.3108 18.1598 27.3558 18.2015 27.4213 18.2397C27.4888 18.278 27.586 18.3185 27.7129 18.3612C27.8459 18.4062 27.9564 18.4546 28.0444 18.5064C28.1323 18.5581 28.2029 18.6301 28.2561 18.7224C28.3114 18.8124 28.339 18.9272 28.339 19.0667C28.339 19.2017 28.3083 19.321 28.2469 19.4245C28.1876 19.528 28.1006 19.609 27.986 19.6675C27.8735 19.726 27.7395 19.7553 27.5839 19.7553C27.2913 19.7553 27.0519 19.6552 26.8657 19.4549L27.0253 19.2591C27.1112 19.3356 27.1982 19.3941 27.2862 19.4346C27.3742 19.4729 27.4724 19.492 27.5809 19.492C27.7118 19.492 27.8203 19.4571 27.9062 19.3874C27.9922 19.3154 28.0351 19.2119 28.0351 19.0768C28.0351 19.0003 28.0218 18.9373 27.9952 18.8878C27.9686 18.836 27.9226 18.7899 27.8571 18.7494C27.7937 18.7089 27.7006 18.6684 27.5778 18.6279C27.3609 18.5559 27.2023 18.4692 27.102 18.368C27.0018 18.2667 26.9516 18.1295 26.9516 17.9562C26.9516 17.8392 26.9792 17.7345 27.0345 17.6423C27.0918 17.55 27.1706 17.478 27.2708 17.4262C27.3732 17.3745 27.4888 17.3486 27.6177 17.3486Z" fill="#068DA8"/>
</svg>
