<svg width="24" height="24" viewBox="0 0 24 24" fill="none" xmlns="http://www.w3.org/2000/svg">
<path d="M14.1818 7.17451C14.1818 7.0371 14.2184 6.89586 14.2916 6.75081C14.3647 6.60577 14.4463 6.51035 14.5364 6.46453C15.0818 6.19051 15.6394 5.97876 16.2092 5.82929C16.7789 5.67982 17.3781 5.60509 18.0068 5.60509C18.3997 5.60509 18.7877 5.63623 19.1708 5.69851C19.5539 5.76078 19.9273 5.8542 20.2909 5.97876C20.4 6.02858 20.5 6.12069 20.5909 6.25509C20.6818 6.38951 20.7273 6.54073 20.7273 6.70873C20.7273 6.99434 20.6591 7.21188 20.5227 7.36135C20.3864 7.51082 20.2182 7.54818 20.0182 7.47345C19.7127 7.34889 19.3909 7.25547 19.0527 7.1932C18.7145 7.13092 18.3636 7.09978 18 7.09978C17.4727 7.09978 16.9636 7.16828 16.4727 7.3053C15.9818 7.44231 15.5 7.64783 15.0273 7.92186C14.7727 8.04641 14.5682 8.04019 14.4136 7.90317C14.2591 7.76616 14.1818 7.52327 14.1818 7.17451ZM14.1818 15.3953C14.1818 15.2507 14.2184 15.102 14.2916 14.9493C14.3647 14.7966 14.4463 14.6962 14.5364 14.648C15.0818 14.3739 15.6394 14.1684 16.2092 14.0314C16.7789 13.8944 17.3781 13.8259 18.0068 13.8259C18.3997 13.8259 18.7877 13.857 19.1708 13.9193C19.5539 13.9816 19.9273 14.075 20.2909 14.1996C20.4 14.2494 20.5 14.3415 20.5909 14.4759C20.6818 14.6103 20.7273 14.7615 20.7273 14.9295C20.7273 15.2151 20.6591 15.4327 20.5227 15.5821C20.3864 15.7316 20.2182 15.769 20.0182 15.6942C19.7127 15.5697 19.3909 15.4763 19.0527 15.414C18.7145 15.3517 18.3636 15.3206 18 15.3206C17.4727 15.3206 16.9636 15.3829 16.4727 15.5074C15.9818 15.632 15.5 15.8313 15.0273 16.1053C14.7727 16.2298 14.5682 16.2298 14.4136 16.1053C14.2591 15.9807 14.1818 15.7441 14.1818 15.3953ZM14.1818 11.2849C14.1818 11.1475 14.2184 11.0063 14.2916 10.8612C14.3647 10.7162 14.4463 10.6207 14.5364 10.5749C15.0818 10.3009 15.6394 10.0892 16.2092 9.93969C16.7789 9.79022 17.3781 9.71549 18.0068 9.71549C18.3997 9.71549 18.7877 9.74662 19.1708 9.8089C19.5539 9.87118 19.9273 9.9646 20.2909 10.0892C20.4 10.139 20.5 10.2311 20.5909 10.3655C20.6818 10.4999 20.7273 10.6511 20.7273 10.8191C20.7273 11.1047 20.6591 11.3223 20.5227 11.4717C20.3864 11.6212 20.2182 11.6586 20.0182 11.5838C19.7127 11.4593 19.3909 11.3659 19.0527 11.3036C18.7145 11.2413 18.3636 11.2102 18 11.2102C17.4727 11.2102 16.9636 11.2787 16.4727 11.4157C15.9818 11.5527 15.5 11.7582 15.0273 12.0323C14.7727 12.1568 14.5682 12.1506 14.4136 12.0136C14.2591 11.8766 14.1818 11.6337 14.1818 11.2849ZM5.67273 18.6836C6.64665 18.6836 7.59468 18.8393 8.51681 19.1507C9.43894 19.4621 10.3455 19.9292 11.2364 20.552V4.59617C10.4182 3.84883 9.53074 3.26963 8.57403 2.85859C7.61734 2.44755 6.65024 2.24204 5.67273 2.24204C4.98182 2.24204 4.30455 2.36036 3.64091 2.59702C2.97727 2.83368 2.30909 3.12639 1.63636 3.47515V19.6925C2.2 19.3438 2.84091 19.0884 3.55909 18.9265C4.27727 18.7646 4.98182 18.6836 5.67273 18.6836ZM12.8727 20.552C13.7818 19.9292 14.6727 19.4621 15.5455 19.1507C16.4182 18.8393 17.3455 18.6836 18.3273 18.6836C19.0182 18.6836 19.7318 18.7584 20.4682 18.9078C21.2045 19.0573 21.8364 19.2566 22.3636 19.5057V3.47515C21.7455 3.05166 21.0925 2.74027 20.4049 2.54097C19.7172 2.34168 19.0246 2.24204 18.3273 2.24204C17.3455 2.24204 16.3955 2.44755 15.4773 2.85859C14.5591 3.26963 13.6909 3.84883 12.8727 4.59617V20.552ZM12.0545 23.504C11.9175 23.504 11.7878 23.4853 11.6654 23.4479C11.543 23.4106 11.4364 23.3421 11.3455 23.2424C10.4909 22.52 9.58321 21.9595 8.62235 21.5609C7.66148 21.1623 6.67827 20.963 5.67273 20.963C5.00842 20.963 4.35598 21.0751 3.71542 21.2993C3.07484 21.5235 2.43636 21.7976 1.8 22.1214C1.38 22.3954 0.975 22.3581 0.585 22.0093C0.195 21.6605 0 21.1623 0 20.5146V3.21358C0 2.83991 0.0636364 2.49738 0.190909 2.18598C0.318182 1.87459 0.509091 1.6317 0.763636 1.45732C1.52727 0.959093 2.32177 0.591648 3.14714 0.354989C3.97248 0.11833 4.81435 0 5.67273 0C6.81818 0 7.93182 0.211748 9.01364 0.635243C10.0955 1.05874 11.1091 1.70644 12.0545 2.57834C12.9818 1.70644 13.9773 1.05874 15.0409 0.635243C16.1045 0.211748 17.2 0 18.3273 0C19.1794 0 20.0152 0.11833 20.8346 0.354989C21.6539 0.591648 22.4455 0.959093 23.2091 1.45732C23.4636 1.6317 23.6591 1.87459 23.7955 2.18598C23.9318 2.49738 24 2.83991 24 3.21358V20.5146C24 21.2095 23.7955 21.7382 23.3864 22.1007C22.9773 22.4633 22.5727 22.4702 22.1727 22.1214C21.5545 21.7727 20.9252 21.4924 20.2846 21.2806C19.644 21.0689 18.9916 20.963 18.3273 20.963C17.3405 20.963 16.3756 21.1623 15.4326 21.5609C14.4897 21.9595 13.6 22.52 12.7636 23.2424C12.6727 23.3421 12.5661 23.4106 12.4437 23.4479C12.3213 23.4853 12.1916 23.504 12.0545 23.504Z" fill="url(#paint0_linear_15_192)"/>
<defs>
<linearGradient id="paint0_linear_15_192" x1="12" y1="0" x2="12" y2="23.504" gradientUnits="userSpaceOnUse">
<stop stop-color="#068DA8"/>
<stop offset="1" stop-color="#023151"/>
</linearGradient>
</defs>
</svg>
