<svg width="24" height="24" viewBox="0 0 24 24" fill="none" xmlns="http://www.w3.org/2000/svg">
<path d="M13.5909 23.504C13.1665 23.504 12.8574 23.3571 12.6636 23.0633C12.4699 22.7695 12.4468 22.4071 12.5944 21.9762L16.6634 10.518C16.7741 10.2047 16.9771 9.94023 17.2724 9.72478C17.5676 9.50933 17.8721 9.4016 18.1858 9.4016C18.4995 9.4016 18.8086 9.50933 19.1131 9.72478C19.4176 9.94023 19.6252 10.2047 19.7359 10.518L23.8879 21.8587C24.054 22.3092 24.0355 22.696 23.8325 23.0192C23.6295 23.3424 23.2882 23.504 22.8084 23.504C22.6054 23.504 22.4116 23.4354 22.2271 23.2983C22.0426 23.1612 21.9134 22.985 21.8396 22.7695L20.9261 19.8021H15.6116L14.5597 22.7989C14.4859 22.9947 14.3567 23.1612 14.1722 23.2983C13.9877 23.4354 13.7939 23.504 13.5909 23.504ZM16.2205 17.7455H20.1511L18.2135 12.0458H18.1581L16.2205 17.7455ZM6.89234 7.69756C7.16914 8.20681 7.47362 8.70138 7.80578 9.18125C8.13794 9.66112 8.49778 10.1557 8.8853 10.6649C9.7157 9.74437 10.4077 8.78952 10.9613 7.80039C11.5149 6.81126 11.9855 5.77807 12.373 4.7008H1.1072C0.793495 4.7008 0.530535 4.58818 0.318321 4.36293C0.106107 4.13768 0 3.85857 0 3.5256C0 3.19263 0.106107 2.91352 0.318321 2.68827C0.530535 2.46302 0.793495 2.3504 1.1072 2.3504H7.75042V1.1752C7.75042 0.842227 7.85653 0.563117 8.06874 0.33787C8.28095 0.112623 8.54391 0 8.85762 0C9.17133 0 9.43429 0.112623 9.6465 0.33787C9.85872 0.563117 9.96482 0.842227 9.96482 1.1752V2.3504H16.608C16.9217 2.3504 17.1847 2.46302 17.3969 2.68827C17.6091 2.91352 17.7152 3.19263 17.7152 3.5256C17.7152 3.85857 17.6091 4.13768 17.3969 4.36293C17.1847 4.58818 16.9217 4.7008 16.608 4.7008H14.5874C14.1814 6.05228 13.6417 7.37928 12.9681 8.68179C12.2946 9.9843 11.4688 11.2232 10.4907 12.3984L13.2034 15.307L12.373 17.6868L8.85762 14.1024L4.06897 19.1851C3.86598 19.4006 3.61686 19.5083 3.32161 19.5083C3.02635 19.5083 2.77723 19.3908 2.57425 19.1558C2.35281 18.9403 2.24209 18.6759 2.24209 18.3625C2.24209 18.0491 2.35281 17.7749 2.57425 17.5399L7.44594 12.369C6.96615 11.7618 6.51404 11.1497 6.08961 10.5327C5.66519 9.91575 5.27767 9.28408 4.92705 8.63772C4.70561 8.20681 4.68716 7.83467 4.87169 7.52128C5.05623 7.20789 5.38839 7.0512 5.86817 7.0512C6.07116 7.0512 6.26953 7.11486 6.4633 7.24217C6.65706 7.36948 6.80007 7.52128 6.89234 7.69756Z" fill="url(#paint0_linear_15_190)"/>
<defs>
<linearGradient id="paint0_linear_15_190" x1="12" y1="0" x2="12" y2="23.504" gradientUnits="userSpaceOnUse">
<stop stop-color="#068DA8"/>
<stop offset="1" stop-color="#023151"/>
</linearGradient>
</defs>
</svg>
