<svg width="413" height="123" viewBox="0 0 413 123" fill="none" xmlns="http://www.w3.org/2000/svg">
<path d="M261 30.7895V76.4035H274V45.614H288.5L314 92.3684H330.5L304.5 45.614H314L318 43.3333L321 41.0526L325 36.4912L326.5 34.2105L327.5 31.9298L328 29.6491L328.5 26.7982V18.2456L327 14.8246L326.5 13.114L325 9.69298L324 7.98246L321 4.5614L319.5 3.42105L317.5 2.2807L315 1.14035L311 0H261L274 24.5175V14.8246H311L313 15.9649L314.5 17.6754L315.5 19.9561V26.7982L314 28.5088L312.5 29.6491L310.5 30.7895H261Z" fill="#068DA8"/>
<path d="M31.5 76.4035L39.5 61.5789H24L41.5 29.6491L67 76.4035H82.5L41.5 1.14035L0 76.4035H31.5Z" fill="#068DA8"/>
<path d="M159 91.7982V0H146V55.8772L97 0V76.4035H111V37.6316L159 91.7982Z" fill="#068DA8"/>
<path d="M176 44.4737V0H227L229.5 0.570175L231 1.14035L233 2.2807L234.5 3.42105L235.5 4.5614L237 5.70175L239 7.98246L241 11.4035L243 15.9649L243.5 18.2456V61.5789L242 65L241 66.7105L237 71.2719L231 74.693L230.5 75.2632L229.5 75.8333L228 76.4035H189V91.7982L176 68.4211V61.5789H223L226 60.4386L227.5 59.2982L230.5 55.8772L231 54.7368V21.6667L230.5 20.5263L227.5 17.1053L226 15.9649L224 14.8246H189V44.4737H176Z" fill="#068DA8"/>
<path d="M345 76.4035V0H413V14.8246H359V30.7895H400V45.614H359V61.5789H413V90.6579L404.5 76.4035H345Z" fill="#068DA8"/>
<path d="M0 82.1053H413V84.386H0V82.1053Z" fill="#068DA8"/>
<path d="M59.048 119.789H56.472L55.8 111.081C55.52 107.665 55.3613 105.043 55.324 103.213L51.152 117.605H48.66L44.264 103.185C44.264 105.519 44.1427 108.216 43.9 111.277L43.256 119.789H40.736L42.332 100.497H45.916L49.976 114.525L53.84 100.497H57.452L59.048 119.789Z" fill="#068DA8"/>
<path d="M109.149 119.789L107.693 114.945H100.385L98.929 119.789H96.241L102.429 100.497H105.789L111.949 119.789H109.149ZM101.029 112.789H107.049L104.053 102.709L101.029 112.789Z" fill="#068DA8"/>
<path d="M155.86 111.613H152.864V119.789H150.204V100.497H155.272C157.68 100.497 159.5 100.955 160.732 101.869C161.982 102.784 162.608 104.147 162.608 105.957C162.608 107.301 162.262 108.393 161.572 109.233C160.881 110.073 159.836 110.708 158.436 111.137L163.644 119.789H160.48L155.86 111.613ZM155.552 109.569C156.952 109.569 158.006 109.289 158.716 108.729C159.425 108.151 159.78 107.227 159.78 105.957C159.78 104.763 159.416 103.904 158.688 103.381C157.978 102.84 156.83 102.569 155.244 102.569H152.864V109.569H155.552Z" fill="#068DA8"/>
<path d="M212.803 118.697C213.829 118.697 214.763 118.856 215.603 119.173C216.443 119.472 217.255 119.892 218.039 120.433L216.303 122.673C215.183 121.684 214.119 121.003 213.111 120.629C212.103 120.256 210.74 120.069 209.023 120.069C207.417 120.069 206.008 119.696 204.795 118.949C203.581 118.184 202.629 117.064 201.939 115.589C201.267 114.096 200.931 112.295 200.931 110.185C200.931 108.113 201.267 106.321 201.939 104.809C202.629 103.297 203.591 102.149 204.823 101.365C206.055 100.563 207.473 100.161 209.079 100.161C210.703 100.161 212.121 100.553 213.335 101.337C214.567 102.103 215.519 103.232 216.191 104.725C216.881 106.219 217.227 108.029 217.227 110.157C217.227 112.416 216.853 114.217 216.107 115.561C215.36 116.887 214.259 117.932 212.803 118.697ZM203.759 110.185C203.759 112.855 204.225 114.815 205.159 116.065C206.111 117.316 207.417 117.941 209.079 117.941C212.625 117.941 214.399 115.347 214.399 110.157C214.399 104.949 212.625 102.345 209.079 102.345C207.399 102.345 206.092 102.98 205.159 104.249C204.225 105.519 203.759 107.497 203.759 110.185Z" fill="#068DA8"/>
<path d="M270.046 113.601C270.046 114.889 269.775 116.028 269.234 117.017C268.711 117.988 267.937 118.753 266.91 119.313C265.902 119.855 264.689 120.125 263.27 120.125C261.123 120.125 259.462 119.537 258.286 118.361C257.129 117.167 256.55 115.58 256.55 113.601V100.497H259.21V113.405C259.21 114.899 259.546 116.019 260.218 116.765C260.89 117.512 261.907 117.885 263.27 117.885C264.651 117.885 265.678 117.521 266.35 116.793C267.022 116.047 267.358 114.917 267.358 113.405V100.497H270.046V113.601Z" fill="#068DA8"/>
<path d="M321.093 100.497L320.785 102.625H313.309V108.925H319.805V111.053H313.309V117.661H321.317V119.789H310.649V100.497H321.093Z" fill="#068DA8"/>
<path d="M365.4 100.161C366.688 100.161 367.789 100.348 368.704 100.721C369.619 101.076 370.505 101.636 371.364 102.401L369.908 104.025C369.18 103.447 368.461 103.027 367.752 102.765C367.061 102.485 366.315 102.345 365.512 102.345C364.504 102.345 363.673 102.579 363.02 103.045C362.367 103.512 362.04 104.193 362.04 105.089C362.04 105.649 362.152 106.125 362.376 106.517C362.6 106.891 363.011 107.236 363.608 107.553C364.224 107.871 365.111 108.207 366.268 108.561C367.481 108.935 368.489 109.336 369.292 109.765C370.095 110.195 370.739 110.792 371.224 111.557C371.728 112.304 371.98 113.256 371.98 114.413C371.98 115.533 371.7 116.523 371.14 117.381C370.599 118.24 369.805 118.912 368.76 119.397C367.733 119.883 366.511 120.125 365.092 120.125C362.423 120.125 360.239 119.295 358.54 117.633L359.996 116.009C360.78 116.644 361.573 117.129 362.376 117.465C363.179 117.783 364.075 117.941 365.064 117.941C366.259 117.941 367.248 117.652 368.032 117.073C368.816 116.476 369.208 115.617 369.208 114.497C369.208 113.863 369.087 113.34 368.844 112.929C368.601 112.5 368.181 112.117 367.584 111.781C367.005 111.445 366.156 111.109 365.036 110.773C363.057 110.176 361.611 109.457 360.696 108.617C359.781 107.777 359.324 106.639 359.324 105.201C359.324 104.231 359.576 103.363 360.08 102.597C360.603 101.832 361.321 101.235 362.236 100.805C363.169 100.376 364.224 100.161 365.4 100.161Z" fill="#068DA8"/>
</svg>
