<svg width="180" height="56" viewBox="0 0 180 56" fill="none" xmlns="http://www.w3.org/2000/svg">
<path d="M19.6277 0L23.2181 5.98291L11.0106 25.3675H4.06915L19.6277 0Z" fill="#603A12"/>
<path d="M4.06915 25.3675H18.6702L14.6011 31.5897H0L4.06915 25.3675Z" fill="#603A12"/>
<path d="M16.0372 5.98291L19.6277 0L39.4947 31.5897H31.8351L16.0372 5.98291Z" fill="#603A12"/>
<path d="M42.6064 0L49.3085 6.61815V31.6725H42.6064V0Z" fill="#603A12"/>
<path d="M42.6064 8.98173V0L72.2872 29.5452V38.2906L42.6064 8.98173Z" fill="#603A12"/>
<path d="M66.0638 0H72.2872V38.2906L66.0638 32.1452V0Z" fill="#603A12"/>
<path d="M75.6383 0H81.8617V19.1453H75.6383V0Z" fill="#603A12"/>
<path d="M75.6383 0H100.293L101.729 0.239316L102.686 0.478632L103.644 0.957265L105.08 1.91453L106.516 3.35043L106.995 4.06838L107.473 5.02564L107.713 6.22222H75.6383V0Z" fill="#603A12"/>
<path d="M101.489 6.22223H107.713V25.8462H101.489V6.22223Z" fill="#603A12"/>
<path d="M75.6383 25.8462H100.532L101.011 25.6068L101.25 25.3675L101.489 24.8889L107.713 25.8462L107.473 26.8034L106.995 28L106.037 29.1966L105.319 29.9145L104.362 30.6325L103.165 31.3504L101.968 31.8291L100.532 32.0684H75.6383V25.8462Z" fill="#603A12"/>
<path d="M78.0319 32.0684H81.8617V38.2906L78.9894 33.7436L78.0319 32.0684Z" fill="#603A12"/>
<path d="M111.064 12.7635H117.287V31.6725H111.064V12.7635Z" fill="#603A12"/>
<path d="M111.064 12.7635H143.138L142.66 14.1817L141.941 15.3635L140.505 16.7817L139.309 17.7271L137.633 18.4362L136.197 18.909H111.064V12.7635Z" fill="#603A12"/>
<path d="M124.707 18.9089H132.128L144.335 38.2906H136.915L124.707 18.9089Z" fill="#603A12"/>
<path d="M111.064 0H117.287V9.92717L114.415 5.19996L111.064 0Z" fill="#603A12"/>
<path d="M117.287 0H135.718L137.394 0.472723L139.069 1.18181L140.745 2.36362L141.702 3.30906L142.66 4.72723L143.138 6.1454H117.287V0Z" fill="#603A12"/>
<path d="M134.521 6.14542H143.138L143.617 7.79995V11.109L143.138 12.7636H135L135.718 12.4445L136.197 12.2051L136.436 11.9658L136.676 11.7265L136.915 11.2479V10.8726V8.50905V8.13677L136.676 7.5636L136.436 7.1795L135.957 6.70087L135.239 6.38176L134.521 6.14542Z" fill="#603A12"/>
<path d="M153.67 0H147.447V32.4743H153.67V0Z" fill="#603A12"/>
<path d="M180 0H147.447V6.30101H180V0Z" fill="#603A12"/>
<path d="M180 26.1733H147.447V32.4743H180V26.1733Z" fill="#603A12"/>
<path d="M173.298 13.0867H147.447V19.3877H173.298V13.0867Z" fill="#603A12"/>
<path d="M176.17 32.4743H180V38.2906L178.085 35.3824L176.17 32.4743Z" fill="#603A12"/>
<path d="M180 34.9402H0V35.8975H180V34.9402Z" fill="#603A12"/>
<path d="M20.6081 53.1282H19.3749L19.0532 48.9603C18.9191 47.3253 18.8432 46.07 18.8253 45.1944L16.8281 52.0829H15.6351L13.5306 45.181C13.5306 46.2978 13.4726 47.5889 13.3564 49.0541L13.0481 53.1282H11.8417L12.6057 43.8944H14.3215L16.2651 50.6087L18.1149 43.8944H19.844L20.6081 53.1282ZM44.5926 53.1282L43.8956 50.8097H40.3971L39.7001 53.1282H38.4132L41.3756 43.8944H42.9841L45.933 53.1282H44.5926ZM40.7054 49.7778H43.5873L42.153 44.9532L40.7054 49.7778ZM66.9543 49.2149H65.52V53.1282H64.2466V43.8944H66.6728C67.8255 43.8944 68.6968 44.1133 69.2866 44.5511C69.885 44.9889 70.1847 45.6411 70.1847 46.5078C70.1847 47.151 70.019 47.6737 69.6887 48.0758C69.3579 48.4778 68.8577 48.7817 68.1875 48.9871L70.6806 53.1282H69.166L66.9543 49.2149ZM66.8068 48.2366C67.477 48.2366 67.9816 48.1026 68.3215 47.8345C68.6609 47.5576 68.8308 47.1153 68.8308 46.5078C68.8308 45.9359 68.6566 45.525 68.3081 45.2748C67.9682 45.0157 67.4186 44.8862 66.6594 44.8862H65.52V48.2366H66.8068ZM94.2142 52.6055C94.7054 52.6055 95.1525 52.6816 95.5546 52.8334C95.9568 52.9765 96.3455 53.1775 96.7208 53.4364L95.8897 54.5086C95.3536 54.0352 94.8442 53.7088 94.3617 53.5303C93.8791 53.3517 93.2266 53.2622 92.4046 53.2622C91.6358 53.2622 90.9613 53.0837 90.3806 52.7262C89.7994 52.36 89.3437 51.8239 89.0134 51.118C88.6916 50.4034 88.5308 49.5409 88.5308 48.5314C88.5308 47.5397 88.6916 46.682 89.0134 45.9583C89.3437 45.2346 89.8042 44.6851 90.394 44.3099C90.9838 43.9257 91.6626 43.7336 92.4314 43.7336C93.2089 43.7336 93.8877 43.9212 94.4689 44.2965C95.0587 44.6628 95.5144 45.2033 95.8361 45.9181C96.1664 46.6328 96.3321 47.4995 96.3321 48.518C96.3321 49.5993 96.153 50.4613 95.7959 51.1046C95.4383 51.7387 94.9112 52.2394 94.2142 52.6055ZM89.8846 48.5314C89.8846 49.8089 90.1077 50.747 90.5548 51.3458C91.0106 51.9446 91.6358 52.2437 92.4314 52.2437C94.129 52.2437 94.9782 51.0016 94.9782 48.518C94.9782 46.0253 94.129 44.7789 92.4314 44.7789C91.6272 44.7789 91.0015 45.0827 90.5548 45.6903C90.1077 46.2978 89.8846 47.2449 89.8846 48.5314ZM121.618 50.1664C121.618 50.7829 121.488 51.3281 121.229 51.8014C120.979 52.2662 120.608 52.6323 120.116 52.9004C119.634 53.1593 119.053 53.289 118.374 53.289C117.346 53.289 116.551 53.0076 115.988 52.4447C115.434 51.8728 115.157 51.1136 115.157 50.1664V43.8944H116.43V50.0726C116.43 50.7872 116.591 51.3233 116.913 51.6808C117.235 52.0384 117.721 52.2169 118.374 52.2169C119.035 52.2169 119.527 52.0427 119.848 51.6942C120.17 51.3367 120.331 50.7963 120.331 50.0726V43.8944H121.618V50.1664ZM146.055 43.8944L145.908 44.913H142.329V47.9283H145.439V48.9469H142.329V52.1097H146.162V53.1282H141.055V43.8944H146.055ZM167.266 43.7336C167.883 43.7336 168.41 43.823 168.848 44.0016C169.286 44.1714 169.71 44.4395 170.121 44.8057L169.424 45.583C169.076 45.3061 168.731 45.105 168.392 44.98C168.061 44.846 167.704 44.7789 167.32 44.7789C166.837 44.7789 166.439 44.8906 166.127 45.114C165.814 45.3374 165.657 45.6635 165.657 46.0923C165.657 46.3603 165.711 46.5882 165.818 46.7758C165.926 46.9545 166.122 47.1198 166.408 47.2717C166.703 47.4235 167.128 47.5844 167.681 47.7541C168.262 47.9327 168.745 48.1251 169.129 48.3304C169.514 48.5357 169.822 48.822 170.054 49.1881C170.295 49.5456 170.416 50.0013 170.416 50.5551C170.416 51.0911 170.282 51.5645 170.014 51.9757C169.755 52.3868 169.375 52.7084 168.874 52.9406C168.383 53.1727 167.798 53.289 167.119 53.289C165.841 53.289 164.795 52.8913 163.982 52.0963L164.679 51.319C165.054 51.6229 165.434 51.855 165.818 52.0159C166.203 52.1676 166.632 52.2437 167.105 52.2437C167.677 52.2437 168.151 52.1054 168.526 51.8282C168.901 51.5425 169.089 51.1314 169.089 50.5953C169.089 50.2914 169.031 50.0415 168.915 49.8448C168.798 49.6395 168.597 49.4561 168.312 49.2953C168.034 49.1345 167.628 48.9737 167.092 48.8129C166.144 48.5271 165.452 48.183 165.014 47.7809C164.576 47.3789 164.357 46.8339 164.357 46.1459C164.357 45.6813 164.478 45.2659 164.719 44.8996C164.97 44.5333 165.313 44.2473 165.751 44.0419C166.198 43.8364 166.703 43.7336 167.266 43.7336Z" fill="#BE9E50"/>
</svg>
